<?xml version="1.0" encoding="utf-8"?>
<!-- Generator: Adobe Illustrator 19.2.0, SVG Export Plug-In . SVG Version: 6.00 Build 0)  -->
<svg version="1.1" id="Layer_1" xmlns="http://www.w3.org/2000/svg" xmlns:xlink="http://www.w3.org/1999/xlink" x="0px" y="0px"
	 viewBox="0 0 830.5 443.3" style="enable-background:new 0 0 830.5 443.3;" xml:space="preserve">
<style type="text/css">
	.st0{fill:#FCCA4F;}
</style>
<title>aimelogo</title>
<path class="st0" d="M631.5,190.7c0.9-8.5,2.7-17.2,7.7-24.2c2.1-2.9,5.6-5.6,8.9-4.3s4,5.7,3.7,9.3c-0.9,12.9-6.6,25-16,33.9
	c-1.5,1.5-3.2,2.8-4.6,4.4C630.7,203.4,630.8,197,631.5,190.7 M163.6,171.7c9.8-42.4,21.9-85.2,43.3-123.3
	c2.9-5.1,6.2-10.3,11.5-12.9c11.9-5.8,18.7,7.4,19,17.2c1.3,38.1-8.6,78.6-14,116.2c-2.6,18.3-5.3,36.7-7.7,55
	c-22.1,6.4-43.9,13.9-65.5,21.8C153.4,220.8,158,196.1,163.6,171.7 M209,37.6c-5.5,5-9.3,11.5-12.7,18.1
	c-21.6,42.6-32.9,90.4-42.3,136.9c-3.7,18.2-6.8,36.6-9.2,55.1c-14.8,5.4-29.5,11-44,16.5l-3.6,1.3c-9.6,3.6-19.1,7.4-28.7,11.1
	c-4.8,1.8-9.6,3.6-14.4,5.3c-2.4,0.8-4.8,1.7-7.2,2.5l-3.6,1.2c-1,0.3-1.7,0.5-2.2,1.5c-0.5,1.2,0.8,1.5,1.7,1.5h0.3
	c1.4-0.4,2.7-0.8,4-1.3l5.7-1.8c3.8-1.2,7.6-2.5,11.5-3.7c9.8-3.2,19.6-6.4,29.4-9.7c9.8-3.3,19.6-6.5,29.4-9.7
	c6.9-2.3,13.7-4.5,20.6-6.6c-3.7,29.2-5.8,58.5-6.5,88c0,1.4,0,3,0.9,4c1.6,1.9,4.9,1,6.3-1.1c0.9-1.5,1.3-3.2,1.2-4.9
	c0-0.8,0-1.5,0-2.2c-1-28.5,0.1-57.1,3.5-85.4l3.5-1.1c9.8-3.1,19.7-6,29.6-8.9c10.5-3,21.2-5.7,31.9-8.1c-2.1,17.3-4,34.6-5.4,52
	c-1.9,23.7-14.8,116.2,29.8,113.5c20.2-1.2,14.9-21.3,14.2-34.8c-0.7-12.9-1.4-25.8-2-38.7c-1.2-25.8-1.9-51.6-1-77.4
	c0.3-7.2,0.6-14.5,0.9-21.7c21.9-3.6,44-6.4,66.1-8.7c1,10.6,4.6,20.8,10.5,29.6c24.6,36,67.6,10.1,83-20.4
	c-0.4,5.9-0.4,11.8,0,17.7c0.2,4,0.6,8.1,2.9,11.4c2.7,3.9,7.4,5.8,12,6.9l1,0.2c5.4,1.3,11,1.2,16.3-0.2
	c10.3-3.1,17.4-12.5,22.6-21.9c2.2-4,4.2-8,6.6-11.9c1.8-3.1,3.8-6.1,5.9-8.9c2-2.6,6.4-9,9.8-4.5c1,1.4,1.3,3.1,1.8,4.8
	c2.4,8.1,10.1,14.4,18.9,12c6.6-1.8,10.9-8.6,13.9-14.2c1.8-3.4,4.5-8.8,9.2-8.3c1.5,0.2,2.8,0.7,4.1,1.5
	c7.9,4.5,14.2,9.5,23.3,11.8c11,2.8,22.7,2.2,33.4-1.8c2.8,19.4,20.2,35.2,39.7,37.5s39.4-8.5,49.4-25.4c4-6.8,6.5-14.3,11.2-20.7
	s12.3-11.4,20-9.7c0.6,0.2,1.2,0.2,1.8,0.1c1.1-0.4,1.1-2.1,0.3-3c-0.9-0.8-2-1.2-3.2-1.1c-11.7-0.7-21.6,8.5-28.1,18.2
	s-11.5,20.9-20.8,28c-4.1,3.2-9.7,5.5-14.4,3.4c-3.2-1.4-5.3-4.4-7-7.5c-4.2-7.5-7.1-15.7-8.3-24.1c-0.3-1.2-0.2-2.5,0.1-3.7
	c0.6-1.4,1.7-2.7,2.9-3.6c11.1-10,18.2-23.6,19.8-38.5c0.6-5.7,0.2-12.1-3.8-16.3c-3.6-3.8-9.4-4.9-14.4-3.8s-9.6,4-13.7,7.2
	c-15.2,12.1-25.8,29-30,48c-0.1,1.2-0.6,2.4-1.3,3.3c-0.8,0.7-1.7,1.2-2.7,1.4c-9.8,3.3-20.7,6.9-31.2,4.6
	c-9.6-2.1-15.8-10.6-22.4-17.1c-4.3-4.3-10.4-5-13.8,0.6c-4.3,7.1-8.1,15.3-14.6,20.8c-2.2,1.9-5.4,3.2-7.9,1.8
	c-4.3-2.4-4.9-10.9-6.2-15.1c-1.7-5.3-4.5-10.1-10.1-11.8c-4.9-1.4-9.6,2.4-13.2,6.1c-8.9,9.2-17.3,19-25,29.2
	c-5.3-9.3-1.2-21-1.6-31.7c-0.1-4.1-1.1-8.6-4.3-11.2c-3.9-3.2-10-2.7-14.1,0.2s-6.8,7.5-8.7,12.2c-1.1,2.7-2,5.5-2.8,8.4
	c-9,16.8-20.6,32.4-36.7,42.8c-2.7,1.9-5.8,3.3-9,4.1c-3.2,0.6-6.9,0-9.3-2.2c-6.9-6.4-2.8-22.2-1-29.9c2.7-11.8,6.8-23.3,7.4-35.4
	c0.6-11.4-4.4-20.6-14.8-25.4c-8.8-4.1-19.2-2.8-23.9,6.5c-5.1,10.3-8.3,21.5-9.4,33c-14,0.9-29.4,4.1-40.9,6
	c-8.2,1.3-16.3,3-24.4,4.8c1.6-30.6,3.4-61.2,3.4-91.9c0-21.9,4.3-64.6-5.1-79.4c-5.4-8.5-13.9-13.2-22.7-13.2
	c-6.7,0.1-13.1,2.7-18,7.2"/>
<path class="st0" d="M347.1,123.6c-7,4.5-9.6,12.7-6,18.4s12.2,6.7,19.2,2.2s9.6-12.7,6-18.4c-2.3-3.3-6-5.2-10-5
	C353.1,120.9,349.9,121.9,347.1,123.6"/>
<path class="st0" d="M637.5,120.6c-5.7,3.6-7.8,10.3-4.9,14.9s10,5.4,15.6,1.8s7.8-10.3,4.9-14.9c-1.8-2.7-4.9-4.2-8.2-4.1
	C642.3,118.4,639.7,119.2,637.5,120.6"/>
<polygon class="st0" points="282.2,48.5 282.2,55.5 784,55.5 784,366.5 294.6,366.5 294.6,373.5 791,373.5 791,48.5 "/>
<polygon class="st0" points="75.5,234.4 75.5,55.5 150.2,55.5 150.2,48.5 68.5,48.5 68.5,234.4 "/>
<polygon class="st0" points="75.5,366.5 75.5,324.5 68.5,324.5 68.5,373.5 174.3,373.5 174.3,366.5 "/>
</svg>
