<?xml version="1.0" encoding="iso-8859-1"?>
<!-- Generator: Adobe Illustrator 19.0.0, SVG Export Plug-In . SVG Version: 6.00 Build 0)  -->
<svg version="1.1" id="Capa_1" xmlns="http://www.w3.org/2000/svg" xmlns:xlink="http://www.w3.org/1999/xlink" x="0px" y="0px"
	 viewBox="0 0 512.003 512.003" style="enable-background:new 0 0 512.003 512.003;" xml:space="preserve">
<g>
	<path style="fill:#D9D9D9;" d="M411.185,454.46l27.179,54.269H482.2l-41.031-81.974
		C431.928,436.768,421.899,446.035,411.185,454.46z"/>
	<path style="fill:#D9D9D9;" d="M67.333,426.756L26.302,508.73h43.836l27.179-54.269C86.603,446.035,76.573,436.768,67.333,426.756z
		"/>
</g>
<circle style="fill:#4398D1;" cx="254.251" cy="254.514" r="254.251"/>
<circle style="fill:#DBDBDB;" cx="254.251" cy="254.514" r="201.647"/>
<circle style="fill:#4398D1;" cx="254.251" cy="254.514" r="149.044"/>
<circle style="fill:#DBDBDB;" cx="254.251" cy="254.514" r="96.44"/>
<circle style="fill:#DE4C3C;" cx="254.251" cy="254.514" r="43.836"/>
<g>
	<path style="fill:#BDBDBD;" d="M67.333,426.756l-8.767,17.535c9.591,9.416,19.91,18.061,30.861,25.863l7.978-15.869
		C86.665,445.921,76.608,436.715,67.333,426.756z"/>
	<path style="fill:#BDBDBD;" d="M441.169,426.756l8.767,17.535c-9.591,9.416-19.91,18.061-30.861,25.863l-7.891-15.781
		C421.899,445.982,431.928,436.742,441.169,426.756z"/>
</g>
<path style="fill:#DBDBDB;" d="M254.251,158.039c-53.261,0.175-96.3,43.486-96.133,96.747c0.149,46.265,33.132,85.902,78.599,94.467
	c43.056-31.948,80.887-70.401,112.133-113.975C339.714,190.302,300.148,157.995,254.251,158.039z M254.251,298.315
	c-24.206,0-43.836-19.63-43.836-43.836c0-24.206,19.63-43.836,43.836-43.836s43.836,19.63,43.836,43.836
	C298.087,278.685,278.457,298.315,254.251,298.315z"/>
<path style="fill:#3E8CC7;" d="M422.407,63.791c-4.077,19.788-9.434,39.295-16.044,58.39
	c72.917,84.175,63.782,211.528-20.393,284.445c-72.47,62.774-179.115,65.833-255.075,7.329
	c-18.236,8.767-35.946,16.833-52.604,23.672c99.465,99.114,260.449,98.825,359.563-0.64s98.825-260.458-0.64-359.572
	C432.463,72.681,427.519,68.139,422.407,63.791z"/>
<path style="fill:#D1D1D1;" d="M403.295,254.479c0,82.316-66.728,149.044-149.044,149.044c-24.899,0-49.412-6.242-71.278-18.148
	c-17.535,10.608-35.069,20.077-52.078,28.581c88.225,67.955,214.842,51.525,282.797-36.7c58.504-75.96,55.435-182.605-7.329-255.075
	c-6.628,19.411-14.598,38.331-23.847,56.637C396.132,201.709,403.303,227.844,403.295,254.479z"/>
<path style="fill:#3E8CC7;" d="M403.295,254.479c0.009-26.635-7.163-52.77-20.778-75.662c-9.898,19.498-21.208,38.252-33.842,56.111
	c10.801,52.157-22.734,103.191-74.89,113.992c-6.426,1.333-12.976,1.999-19.533,1.999c-5.883-0.035-11.748-0.587-17.535-1.666
	c-17.219,12.958-35.104,25.013-53.568,36.121c72.348,39.269,162.826,12.458,202.094-59.889
	C397.07,303.69,403.277,279.282,403.295,254.479z"/>
<path style="fill:#D1D1D1;" d="M236.716,349.253c5.786,1.078,11.652,1.631,17.535,1.666c53.261-0.009,96.431-43.188,96.422-96.458
	c0-6.567-0.675-13.107-1.999-19.533C317.507,278.615,279.737,317.182,236.716,349.253z"/>
<polygon style="fill:#DE4C3C;" points="455.898,114.203 508.502,61.599 447.131,61.599 447.131,0.228 394.527,52.832 
	394.527,114.203 "/>
<path style="fill:#5C3724;" d="M254.251,263.246c-2.332,0.018-4.568-0.903-6.225-2.543c-3.437-3.41-3.463-8.96-0.053-12.397
	c0.018-0.018,0.035-0.035,0.053-0.053L475.975,20.305c3.437-3.437,9.013-3.437,12.45,0c3.437,3.437,3.437,9.013,0,12.45
	L260.476,260.704C258.819,262.343,256.583,263.264,254.251,263.246z"/>
<g>
</g>
<g>
</g>
<g>
</g>
<g>
</g>
<g>
</g>
<g>
</g>
<g>
</g>
<g>
</g>
<g>
</g>
<g>
</g>
<g>
</g>
<g>
</g>
<g>
</g>
<g>
</g>
<g>
</g>
</svg>
