<svg id="Layer_1" data-name="Layer 1" xmlns="http://www.w3.org/2000/svg" viewBox="0 0 731.06 694.85"><defs><style>.cls-1{fill:#212121;}</style></defs><title>aime</title><path class="cls-1" d="M623.75,305.77c0.88-8.51,2.74-17.22,7.73-24.16,2.07-2.88,5.58-5.63,8.88-4.32s4,5.7,3.71,9.26a52.1,52.1,0,0,1-16,33.94c-1.54,1.46-3.19,2.84-4.63,4.39a111,111,0,0,1,.34-19.1m-467.89-19c9.78-42.38,21.87-85.2,43.32-123.32,2.86-5.09,6.23-10.31,11.49-12.86,11.91-5.77,18.67,7.38,19,17.24,1.28,38.09-8.6,78.64-14,116.24-2.65,18.33-5.28,36.68-7.66,55C185.9,345.54,164,353,142.43,360.91c3.18-24.92,7.78-49.67,13.42-74.1m45.45-134.08c-5.51,5-9.33,11.53-12.69,18.15C167,213.44,155.72,261.24,146.35,307.8q-5.51,27.37-9.23,55.06c-14.81,5.44-29.5,11-44,16.46l-3.55,1.34c-9.57,3.64-19.08,7.44-28.65,11.1-4.78,1.82-9.56,3.61-14.38,5.32q-3.58,1.27-7.18,2.47l-3.58,1.17c-1,.31-1.7.48-2.16,1.49-0.55,1.21.82,1.53,1.72,1.47l0.28,0a37,37,0,0,0,4-1.3l5.74-1.84q5.74-1.84,11.47-3.72Q71.53,392,86.19,387t29.36-9.74q10.28-3.38,20.59-6.65a856,856,0,0,0-6.49,87.95c0,1.41,0,3,.89,4,1.58,1.89,4.92,1,6.26-1.09a9.18,9.18,0,0,0,1.21-4.93c0-.75,0-1.51,0-2.25A553.52,553.52,0,0,1,141.46,369l3.54-1.12q14.76-4.61,29.62-8.89c10.54-3,21.17-5.67,31.87-8.05-2.13,17.29-4,34.62-5.4,52-1.9,23.74-14.85,116.2,29.82,113.58,20.23-1.19,14.91-21.31,14.17-34.75-0.71-12.9-1.44-25.8-2-38.7-1.2-25.79-1.9-51.62-1-77.43,0.26-7.25.59-14.5,0.94-21.74,21.92-3.65,44-6.39,66.05-8.69a63.71,63.71,0,0,0,10.47,29.62c24.58,36,67.59,10.08,83-20.38a141.59,141.59,0,0,0,0,17.69c0.23,4,.65,8.14,2.9,11.43,2.67,3.91,7.42,5.82,12,6.91l1,0.23a33,33,0,0,0,16.3-.18c10.33-3.1,17.37-12.54,22.63-21.95,2.22-4,4.25-8,6.56-11.91a89.21,89.21,0,0,1,5.91-8.95c2-2.57,6.38-9,9.78-4.48,1,1.36,1.33,3.12,1.81,4.75,2.41,8.14,10.15,14.41,18.87,12,6.59-1.8,10.9-8.55,13.89-14.25,1.81-3.45,4.46-8.78,9.17-8.32a10.46,10.46,0,0,1,4.09,1.5c7.93,4.51,14.2,9.51,23.3,11.79a55.76,55.76,0,0,0,33.37-1.8c2.79,19.36,20.22,35.24,39.65,37.48s39.4-8.53,49.36-25.37c4-6.75,6.53-14.34,11.16-20.67s12.32-11.38,20-9.72a3.11,3.11,0,0,0,1.8.07c1.08-.44,1.14-2.1.34-3a4.67,4.67,0,0,0-3.22-1.15c-11.67-.72-21.59,8.48-28.1,18.19s-11.52,20.87-20.76,28c-4.1,3.18-9.65,5.46-14.41,3.4-3.2-1.38-5.33-4.43-7.05-7.46a69.37,69.37,0,0,1-8.33-24.15,7.94,7.94,0,0,1,.07-3.68,9.07,9.07,0,0,1,2.92-3.58,60.84,60.84,0,0,0,19.85-38.47c0.62-5.72.2-12.11-3.75-16.3-3.57-3.78-9.36-4.85-14.44-3.77s-9.59,4-13.67,7.23a84.76,84.76,0,0,0-30,48,6.7,6.7,0,0,1-1.35,3.33,6.42,6.42,0,0,1-2.71,1.43c-9.85,3.33-20.68,6.88-31.16,4.57-9.63-2.13-15.78-10.58-22.43-17.15-4.33-4.28-10.36-5-13.79.61-4.35,7.12-8.12,15.29-14.57,20.81-2.17,1.86-5.35,3.2-7.85,1.8-4.27-2.41-4.85-10.92-6.24-15.15-1.74-5.27-4.48-10.12-10.15-11.78-4.89-1.44-9.61,2.45-13.16,6.11a310.85,310.85,0,0,0-25,29.25c-5.32-9.34-1.24-21-1.57-31.73-0.13-4.13-1.13-8.57-4.29-11.22-3.88-3.25-10-2.67-14.13.19s-6.76,7.5-8.69,12.18a73.51,73.51,0,0,0-2.82,8.4c-9,16.77-20.58,32.38-36.67,42.84a25.38,25.38,0,0,1-9,4.06c-3.24.6-6.86,0-9.28-2.23-6.94-6.45-2.76-22.16-1-29.92,2.66-11.76,6.77-23.27,7.4-35.4,0.59-11.38-4.37-20.59-14.8-25.4-8.79-4.05-19.25-2.8-23.92,6.53a94.22,94.22,0,0,0-9.44,33c-14,.87-29.35,4.15-40.87,6-8.17,1.34-16.31,3-24.44,4.75,1.6-30.61,3.43-61.22,3.43-91.88,0-21.92,4.31-64.57-5.08-79.45-5.39-8.55-13.93-13.16-22.7-13.16a26.81,26.81,0,0,0-18,7.25"/><path class="cls-1" d="M339.36,238.73c-7,4.46-9.64,12.69-6,18.39s12.25,6.69,19.21,2.23,9.64-12.69,6-18.39a11.6,11.6,0,0,0-10-5,17.14,17.14,0,0,0-9.17,2.79"/><path class="cls-1" d="M629.77,235.73c-5.65,3.62-7.83,10.31-4.87,14.94s10,5.44,15.61,1.81,7.83-10.31,4.87-14.94a9.43,9.43,0,0,0-8.16-4.08,13.9,13.9,0,0,0-7.45,2.27"/><polygon class="cls-1" points="317.29 440.4 317.29 454.76 315.49 454.76 315.49 422.73 317.29 422.73 317.29 438.6 330.7 438.6 330.7 422.73 332.51 422.73 332.51 454.76 330.7 454.76 330.7 440.4 317.29 440.4"/><path class="cls-1" d="M358.53,442.49H347.44L343,454.76h-1.92L353,422l11.91,32.77H363Zm-0.66-1.8L353,427.25l-4.88,13.43h9.77Z"/><polygon class="cls-1" points="373.45 422.73 375.44 422.73 391.89 451.21 391.89 422.73 393.69 422.73 393.69 454.76 391.89 454.76 375.26 425.99 375.26 454.76 373.45 454.76 373.45 422.73"/><path class="cls-1" d="M406,422.77h0.14q7.91,0,12.25,4.36a16.43,16.43,0,0,1,0,23.22q-4.35,4.36-12.25,4.36H406v0h-1.8v-32H406v0Zm0,1.84V452.9h0.14q7.13,0,10.95-3.85a14.59,14.59,0,0,0,0-20.62q-3.82-3.82-10.95-3.82H406Z"/><polygon class="cls-1" points="434.86 422.73 446.89 443.55 458.9 422.73 460.96 422.73 460.88 422.87 460.88 454.76 459.08 454.76 459.08 425.99 446.89 447.09 434.68 425.99 434.68 454.76 432.88 454.76 432.88 422.87 432.8 422.73 434.86 422.73"/><path class="cls-1" d="M487,442.49H475.9l-4.46,12.27h-1.92L481.44,422l11.91,32.77h-1.9Zm-0.66-1.8-4.88-13.43-4.88,13.43h9.77Z"/><path class="cls-1" d="M503.71,422.77h0.14q7.91,0,12.25,4.36a16.43,16.43,0,0,1,0,23.22q-4.35,4.36-12.25,4.36h-0.14v0h-1.8v-32h1.8v0Zm0,1.84V452.9h0.14q7.12,0,10.95-3.85a14.59,14.59,0,0,0,0-20.62q-3.83-3.82-10.95-3.82h-0.14Z"/><polygon class="cls-1" points="546.47 422.73 546.47 424.53 532.26 424.53 532.26 437.84 546.47 437.84 546.47 439.64 532.26 439.64 532.26 452.95 546.47 452.95 546.47 454.76 530.46 454.76 530.46 422.73 546.47 422.73"/><path class="cls-1" d="M331,491.68H319.87L315.41,504h-1.92l11.93-32.77L337.33,504h-1.9Zm-0.66-1.8-4.88-13.43-4.88,13.43h9.77Z"/><path class="cls-1" d="M370.64,498.85l1.36,1.22a16.39,16.39,0,1,1,0-24.26L370.64,477a14.56,14.56,0,1,0,0,21.8"/><path class="cls-1" d="M407.12,498.85l1.36,1.22a16.39,16.39,0,1,1,0-24.26L407.12,477a14.56,14.56,0,1,0,0,21.8"/><polygon class="cls-1" points="433.46 471.92 433.46 473.72 419.25 473.72 419.25 487.04 433.46 487.04 433.46 488.84 419.25 488.84 419.25 502.15 433.46 502.15 433.46 503.95 417.45 503.95 417.45 471.92 433.46 471.92"/><path class="cls-1" d="M451.48,486.21a13.55,13.55,0,0,1-5.4-3.12,6.78,6.78,0,0,1,9.61-9.57,5.69,5.69,0,0,1,1.52,2.38l-1.62.64a4.9,4.9,0,0,0-1.18-1.8,5,5,0,0,0-7,7.07,13.47,13.47,0,0,0,3.76,2.46,15.86,15.86,0,0,1,6.46,3.86,9.48,9.48,0,1,1-16.07,8.23l1.7-.62a7.72,7.72,0,1,0,13.13-6.36,14.63,14.63,0,0,0-4.86-3.17"/><path class="cls-1" d="M476.89,486.21a13.55,13.55,0,0,1-5.4-3.12,6.78,6.78,0,0,1,9.61-9.57,5.69,5.69,0,0,1,1.52,2.38l-1.62.64a4.9,4.9,0,0,0-1.18-1.8,5,5,0,0,0-7,7.07,13.47,13.47,0,0,0,3.76,2.46,15.86,15.86,0,0,1,6.46,3.86,9.48,9.48,0,1,1-16.07,8.23l1.7-.62a7.72,7.72,0,1,0,13.13-6.36,14.63,14.63,0,0,0-4.86-3.17"/><path class="cls-1" d="M521.88,476.28a16.43,16.43,0,1,1-11.62-4.81,15.84,15.84,0,0,1,11.62,4.81m-11.62-3a14.59,14.59,0,1,0,10.32,4.27,14.06,14.06,0,0,0-10.32-4.27"/><path class="cls-1" d="M544.54,492.82l-0.54,0h-5.44v11.11h-1.8v-32h8.41a10.58,10.58,0,0,1,6.22,3.06,10.5,10.5,0,0,1-4.86,17.58l7.39,11.39h-2.22Zm-6-19.08V491H544a8.64,8.64,0,0,0,0-17.27h-5.44Z"/><rect class="cls-1" x="563.5" y="471.92" width="1.8" height="32.03"/><polygon class="cls-1" points="592.27 471.92 592.27 473.72 578.06 473.72 578.06 487.04 592.27 487.04 592.27 488.84 578.06 488.84 578.06 502.15 592.27 502.15 592.27 503.95 576.26 503.95 576.26 471.92 592.27 471.92"/><path class="cls-1" d="M610.29,486.21a13.55,13.55,0,0,1-5.4-3.12,6.78,6.78,0,0,1,9.61-9.57,5.69,5.69,0,0,1,1.52,2.38l-1.62.64a4.9,4.9,0,0,0-1.18-1.8,5,5,0,0,0-7,7.07,13.47,13.47,0,0,0,3.76,2.46,15.86,15.86,0,0,1,6.46,3.86,9.48,9.48,0,1,1-16.07,8.23l1.7-.62a7.72,7.72,0,1,0,13.13-6.36,14.63,14.63,0,0,0-4.86-3.17"/><polygon class="cls-1" points="671.71 631.21 204.47 631.21 204.47 588.74 194.47 588.74 194.47 641.21 681.71 641.21 681.71 461.99 671.71 461.99 671.71 631.21"/><polygon class="cls-1" points="194.47 39.23 194.47 77.71 204.47 77.71 204.47 49.23 671.71 49.23 671.71 139.04 681.71 139.04 681.71 39.23 194.47 39.23"/></svg>