<svg id="Layer_1" data-name="Layer 1" xmlns="http://www.w3.org/2000/svg" viewBox="0 0 830.53 443.32"><defs><style>.cls-1{fill:#212121;}</style></defs><title>aimelogo</title><path class="cls-1" d="M631.48,190.67c0.88-8.51,2.74-17.22,7.73-24.16,2.07-2.88,5.58-5.63,8.88-4.32s4,5.7,3.71,9.26a52.1,52.1,0,0,1-16,33.94c-1.54,1.46-3.19,2.84-4.63,4.39a111,111,0,0,1,.34-19.1m-467.89-19c9.78-42.38,21.87-85.2,43.32-123.32,2.86-5.09,6.23-10.31,11.49-12.86,11.91-5.77,18.67,7.38,19,17.24,1.28,38.09-8.6,78.64-14,116.24-2.65,18.33-5.28,36.68-7.66,55-22.07,6.38-43.93,13.89-65.53,21.75,3.18-24.92,7.78-49.67,13.42-74.1M209,37.63c-5.51,5-9.33,11.53-12.69,18.15-21.64,42.56-32.89,90.36-42.27,136.92q-5.51,27.37-9.23,55.06c-14.81,5.44-29.5,11-44,16.46l-3.55,1.34c-9.57,3.64-19.08,7.44-28.65,11.1-4.78,1.82-9.56,3.61-14.38,5.32q-3.58,1.27-7.18,2.47l-3.58,1.17c-1,.31-1.7.48-2.16,1.49-0.55,1.21.82,1.53,1.72,1.47l0.28,0a37,37,0,0,0,4-1.3l5.74-1.84q5.74-1.84,11.47-3.72,14.7-4.8,29.36-9.72t29.36-9.74q10.28-3.38,20.59-6.65a856,856,0,0,0-6.49,87.95c0,1.41,0,3,.89,4,1.58,1.89,4.92,1,6.26-1.09a9.18,9.18,0,0,0,1.21-4.93c0-.75,0-1.51,0-2.25a553.52,553.52,0,0,1,3.48-85.41l3.54-1.12q14.76-4.61,29.62-8.89c10.54-3,21.17-5.67,31.87-8.05-2.13,17.29-4,34.62-5.4,52C206.93,311.54,194,404,238.65,401.37c20.23-1.19,14.91-21.31,14.17-34.75-0.71-12.9-1.44-25.8-2-38.7-1.2-25.79-1.9-51.62-1-77.43,0.26-7.25.59-14.5,0.94-21.74,21.92-3.65,44-6.39,66.05-8.69a63.71,63.71,0,0,0,10.47,29.62c24.58,36,67.59,10.08,83-20.38a141.59,141.59,0,0,0,0,17.69c0.23,4,.65,8.14,2.9,11.43,2.67,3.91,7.42,5.82,12,6.91l1,0.23a33,33,0,0,0,16.3-.18c10.33-3.1,17.37-12.54,22.63-21.95,2.22-4,4.25-8,6.56-11.91a89.21,89.21,0,0,1,5.91-8.95c2-2.57,6.38-9,9.78-4.48,1,1.36,1.33,3.12,1.81,4.75,2.41,8.14,10.15,14.41,18.87,12,6.59-1.8,10.9-8.55,13.89-14.25,1.81-3.45,4.46-8.78,9.17-8.32a10.46,10.46,0,0,1,4.09,1.5c7.93,4.51,14.2,9.51,23.3,11.79a55.76,55.76,0,0,0,33.37-1.8c2.79,19.36,20.22,35.24,39.65,37.48s39.4-8.53,49.36-25.37c4-6.75,6.53-14.34,11.16-20.67s12.32-11.38,20-9.72a3.11,3.11,0,0,0,1.8.07c1.08-.44,1.14-2.1.34-3a4.67,4.67,0,0,0-3.22-1.15c-11.67-.72-21.59,8.48-28.1,18.19s-11.52,20.87-20.76,28c-4.1,3.18-9.65,5.46-14.41,3.4-3.2-1.38-5.33-4.43-7.05-7.46a69.37,69.37,0,0,1-8.33-24.15,7.94,7.94,0,0,1,.07-3.68,9.07,9.07,0,0,1,2.92-3.58,60.84,60.84,0,0,0,19.85-38.47c0.62-5.72.2-12.11-3.75-16.3-3.57-3.78-9.36-4.85-14.44-3.77s-9.59,4-13.67,7.23a84.76,84.76,0,0,0-30,48,6.7,6.7,0,0,1-1.35,3.33,6.42,6.42,0,0,1-2.71,1.43c-9.85,3.33-20.68,6.88-31.16,4.57-9.63-2.13-15.78-10.58-22.43-17.15-4.33-4.28-10.36-5-13.79.61-4.35,7.12-8.12,15.29-14.57,20.81-2.17,1.86-5.35,3.2-7.85,1.8-4.27-2.41-4.85-10.92-6.24-15.15-1.74-5.27-4.48-10.12-10.15-11.78-4.89-1.44-9.61,2.45-13.16,6.11a310.85,310.85,0,0,0-25,29.25c-5.32-9.34-1.24-21-1.57-31.73-0.13-4.13-1.13-8.57-4.29-11.22-3.88-3.25-10-2.67-14.13.19s-6.76,7.5-8.69,12.18a73.51,73.51,0,0,0-2.82,8.4c-9,16.77-20.58,32.38-36.67,42.84a25.38,25.38,0,0,1-9,4.06c-3.24.6-6.86,0-9.28-2.23-6.94-6.45-2.76-22.16-1-29.92,2.66-11.76,6.77-23.27,7.4-35.4,0.59-11.38-4.37-20.59-14.8-25.4-8.79-4.05-19.25-2.8-23.92,6.53a94.22,94.22,0,0,0-9.44,33c-14,.87-29.35,4.15-40.87,6-8.17,1.34-16.31,3-24.44,4.75,1.6-30.61,3.43-61.22,3.43-91.88,0-21.92,4.31-64.57-5.08-79.45-5.39-8.55-13.93-13.16-22.7-13.16a26.81,26.81,0,0,0-18,7.25"/><path class="cls-1" d="M347.1,123.64c-7,4.46-9.64,12.69-6,18.39s12.25,6.69,19.21,2.23,9.64-12.69,6-18.39a11.6,11.6,0,0,0-10-5,17.14,17.14,0,0,0-9.17,2.79"/><path class="cls-1" d="M637.51,120.64c-5.65,3.62-7.83,10.31-4.87,14.94s10,5.44,15.61,1.81,7.83-10.31,4.87-14.94a9.43,9.43,0,0,0-8.16-4.08,13.9,13.9,0,0,0-7.45,2.27"/><polygon class="cls-1" points="282.24 48.49 282.24 55.49 784.04 55.49 784.04 366.52 294.61 366.52 294.61 373.52 791.04 373.52 791.04 48.49 282.24 48.49"/><polygon class="cls-1" points="75.47 234.44 75.47 55.49 150.17 55.49 150.17 48.49 68.47 48.49 68.47 234.44 75.47 234.44"/><polygon class="cls-1" points="75.47 366.52 75.47 324.55 68.47 324.55 68.47 373.52 174.28 373.52 174.28 366.52 75.47 366.52"/></svg>